<?xml version="1.0" encoding="UTF-8"?>
<svg width="164px" height="110px" viewBox="0 0 164 110" version="1.1" xmlns="http://www.w3.org/2000/svg" xmlns:xlink="http://www.w3.org/1999/xlink">
    <title>Group 37</title>
    <defs>
        <linearGradient x1="50%" y1="0%" x2="50%" y2="99.0084135%" id="linearGradient-1">
            <stop stop-color="#D86828" offset="0%"></stop>
            <stop stop-color="#F9AD1B" offset="100%"></stop>
        </linearGradient>
    </defs>
    <g id="Page-1" stroke="none" stroke-width="1" fill="none" fill-rule="evenodd">
        <g id="Landing-V2" transform="translate(-45.000000, -30.000000)">
            <g id="Group-37" transform="translate(45.000000, 30.000000)">
                <path d="M25.4694468,64.7399149 L25.6131937,64.7482298 C25.9471569,64.7865698 26.2668298,64.9571064 26.4847234,65.252 L26.4847234,65.252 L26.6934155,65.5282782 C27.3867582,66.4254894 28.0522128,67.0859149 28.5424255,67.5208085 L28.5424255,67.5208085 L28.6398565,67.616985 C29.0056608,68.0184218 29.0827038,68.6121309 28.808766,69.0921702 L28.808766,69.0921702 L24.8525106,76.0188936 L24.7745941,76.14105 C24.3048482,76.8038377 23.3697991,76.9632813 22.7044681,76.466383 L22.7044681,76.466383 L18.4453617,73.2885532 L18.3301404,73.1932123 C17.7122321,72.6273194 17.6904965,71.6417258 18.3138298,71.0511064 L18.3138298,71.0511064 L24.6091064,65.0834894 C24.8525106,64.8522553 25.1614468,64.7399149 25.4694468,64.7399149 L25.4694468,64.7399149 Z M21.6465957,56.5278298 L21.7704544,56.5336467 C22.3440072,56.5876178 22.8476709,57.0126723 22.9651915,57.6208085 L22.9651915,57.6208085 L23.0403499,57.992769 C23.4019191,59.7018608 23.9087574,61.0344596 24.2940851,61.891617 L24.2940851,61.891617 L24.3442271,62.0203314 C24.5455217,62.6263609 24.2923064,63.297495 23.7234894,63.6151064 L23.7234894,63.6151064 L13.8824681,69.1122979 L13.1335319,69.530766 L13.0088613,69.5923181 C12.335395,69.883051 11.5380501,69.5774643 11.242,68.8866809 L11.242,68.8866809 L8.49059574,62.4701702 L8.44305124,62.342129 C8.22634146,61.6546672 8.59409762,60.9059124 9.29148936,60.6675745 L9.29148936,60.6675745 L21.2145532,56.5999149 C21.3582553,56.550766 21.5038298,56.5278298 21.6465957,56.5278298 L21.6465957,56.5278298 Z M3.62812766,45.6911912 L3.71396277,45.6939999 L3.71396277,45.6939999 L3.80085106,45.7024255 L22.1451064,48.1388085 L22.2732015,48.1623204 C22.9827432,48.3295373 23.408,49.0631206 23.2090638,49.7845957 L23.2090638,49.7845957 L23.0821725,50.2713256 C22.8048138,51.4036582 22.657367,52.5120691 22.616,53.5896596 L22.616,53.5896596 L22.6047301,53.7178444 C22.5291941,54.2658611 22.1118055,54.7107568 21.5571915,54.8085532 L21.5571915,54.8085532 L6.57565957,57.4593191 L4.55868085,57.7818298 L4.4282162,57.7959644 C3.73680925,57.8357649 3.12581727,57.3140751 3.07251064,56.6078723 L3.07251064,56.6078723 L2.34744681,47.0762553 C2.28987234,46.3193617 2.89276596,45.6907234 3.62812766,45.6911912 L3.62812766,45.6911912 Z M4.81893617,25.3322979 L4.94338689,25.3384167 C5.10956085,25.3548034 5.27597447,25.404383 5.434,25.4905106 L5.434,25.4905106 L28.8569787,38.2650213 L28.9718977,38.3355377 C29.630621,38.7879073 29.7325442,39.7503785 29.138766,40.3171064 L29.138766,40.3171064 L28.7311556,40.7129707 C26.8633252,42.560528 25.4742525,44.4100426 24.4733617,46.2318298 L24.4733617,46.2318298 L24.4009881,46.3484007 C24.089687,46.7946177 23.5246612,46.9968969 22.9923404,46.8422128 L22.9923404,46.8422128 L2.40642553,40.8572766 L0.928680851,40.4275745 L0.803827192,40.3842601 C0.318608083,40.1877819 0.00734533552,39.7191097 -2.54611147e-14,39.2105532 L-2.54611147e-14,39.2105532 L-2.54611147e-14,39.1735745 L0.00625847124,39.0637652 C0.013678487,38.9903972 0.0276170213,38.9167518 0.048212766,38.8431064 L0.048212766,38.8431064 L3.57804255,26.2722128 C3.74093617,25.6927234 4.26519149,25.3322979 4.81893617,25.3322979 L4.81893617,25.3322979 Z M22.6337872,3.53495011e-13 L22.8007524,0.00829005049 C23.2445921,0.0524659837 23.6723641,0.272893617 23.9673617,0.662340426 L23.9673617,0.662340426 L45.1819149,28.7011064 L45.2632219,28.8182999 C45.8170294,29.6924053 45.441926,30.8730009 44.4582553,31.2638723 L44.4582553,31.2638723 L43.7727196,31.5402844 C39.2456649,33.3886115 35.5799959,35.3476697 32.6386383,37.3648936 L32.6386383,37.3648936 L32.5081348,37.4458514 C31.9310632,37.7680582 31.2121824,37.7186322 30.6801702,37.3091915 L30.6801702,37.3091915 L6.44365957,18.6513191 L6.32470536,18.5507161 C5.64630447,17.9212801 5.60490034,16.8428354 6.26297872,16.1639149 L6.26297872,16.1639149 L21.4340851,0.508340426 C21.7645532,0.167106383 22.1998723,3.53495011e-13 22.6337872,3.53495011e-13 L22.6337872,3.53495011e-13 Z" id="Combined-Shape" fill="url(#linearGradient-1)"></path>
                <path d="M56.9651149,57.1480894 L56.9651149,59.6148979 C55.920817,60.236983 55.0763915,60.6591957 53.4320085,60.6591957 C52.4766468,60.6591957 52.2323064,60.3923872 52.2323064,59.192217 C52.2323064,58.014983 52.5211149,57.8371106 53.2766043,57.7257064 L56.9651149,57.1480894 Z M52.7874553,55.836983 C50.8102638,56.0813234 49.6990298,56.8812809 49.6990298,59.3925574 C49.6990298,61.881366 50.6323915,62.8362596 53.0102638,62.8362596 C55.1877957,62.8362596 56.0762213,62.1477064 56.9431149,61.0144723 L56.9431149,62.8142596 L61.0103064,62.8142596 L61.1877106,62.8142596 L66.876817,62.8142596 L66.876817,60.8810681 L65.3213702,60.8810681 L65.3213702,59.725366 L67.3210298,57.4144298 L70.1431149,62.8142596 L73.5432851,62.8142596 L73.5432851,60.8810681 L71.7874979,60.8810681 L68.9429447,55.5701745 L71.4097532,52.7485574 L73.0316681,52.7485574 L73.0316681,50.8148979 L67.5438383,50.8148979 L67.5438383,52.7485574 L68.6986043,52.7485574 L65.3213702,56.8368128 L65.3213702,46.5932383 L61.0103064,46.5932383 L61.0103064,48.5264298 L62.8100936,48.5264298 L62.8100936,60.8810681 L61.1877106,60.8810681 L61.0103064,60.8810681 L59.4983915,60.8810681 L59.4983915,53.7479191 C59.4983915,51.7487277 58.5650298,50.8148979 56.5653702,50.8148979 L53.0322638,50.8148979 C51.0321362,50.8148979 50.0992426,51.7487277 50.0992426,53.7479191 L50.0992426,54.3704723 L52.6100511,54.3704723 L52.6100511,53.7703872 C52.6100511,53.1707702 52.8543915,52.9259617 53.4540085,52.9259617 L56.0982213,52.9259617 C56.6987745,52.9259617 56.9431149,53.1707702 56.9431149,53.7703872 L56.9431149,55.4817064 C55.2982638,55.5701745 53.7872851,55.7035787 52.7874553,55.836983 L52.7874553,55.836983 Z" id="Fill-16" fill="#2F4A73"></path>
                <path d="M77.8102553,60.6591957 C76.8544255,60.6591957 76.6105532,60.3923872 76.6105532,59.192217 C76.6105532,58.014983 76.8993617,57.8371106 77.6548511,57.7257064 L81.3433617,57.1480894 L81.3433617,59.6148979 C80.2990638,60.236983 79.4546383,60.6591957 77.8102553,60.6591957 L77.8102553,60.6591957 Z M81.3213617,62.8142596 L85.3885532,62.8142596 L85.5650213,62.8142596 L91.8991489,62.8142596 L91.8991489,60.8810681 L89.743617,60.8810681 L89.743617,54.1706 C90.7439149,53.5925149 91.6323404,53.2372383 92.9214468,53.2372383 L93.9662128,53.2372383 L93.9662128,50.8148979 L93.2991915,50.8148979 C91.4774043,50.8148979 90.6329787,51.5928553 89.743617,52.6371532 L89.743617,50.8148979 L85.3885532,50.8148979 L85.3885532,52.7485574 L87.1883404,52.7485574 L87.1883404,60.8810681 L85.5650213,60.8810681 L85.3885532,60.8810681 L83.8766383,60.8810681 L83.8766383,53.7479191 C83.8766383,51.7487277 82.9432766,50.8148979 80.9431489,50.8148979 L77.4105106,50.8148979 C75.410383,50.8148979 74.4770213,51.7487277 74.4770213,53.7479191 L74.4770213,54.3704723 L76.9882979,54.3704723 L76.9882979,53.7703872 C76.9882979,53.1707702 77.2326383,52.9259617 77.8327234,52.9259617 L80.4764681,52.9259617 C81.0770213,52.9259617 81.3213617,53.1707702 81.3213617,53.7703872 L81.3213617,55.4817064 C79.6765106,55.5701745 78.1655319,55.7035787 77.1661702,55.836983 C75.1880426,56.0813234 74.0768085,56.8812809 74.0768085,59.3925574 C74.0768085,61.881366 75.0106383,62.8362596 77.3880426,62.8362596 C79.5655745,62.8362596 80.4544681,62.1477064 81.3213617,61.0144723 L81.3213617,62.8142596 Z" id="Fill-18" fill="#2F4A73"></path>
                <polygon id="Fill-22" fill="#2F4A73" points="55.7654596 84.3120979 54.0101404 84.3120979 54.0101404 74.2463957 49.6106085 74.2463957 49.6106085 76.1795872 51.4543957 76.1795872 51.4543957 84.3120979 49.6106085 84.3120979 49.6106085 86.2457574 55.7654596 86.2457574"></polygon>
                <path d="M63.9210468,77.3351489 L63.9210468,83.1571915 C63.9210468,83.7792766 63.6991745,84.0011489 63.0766213,84.0011489 L60.0991319,84.0011489 C59.4990468,84.0011489 59.2547064,83.7792766 59.2547064,83.1571915 L59.2547064,77.3351489 C59.2547064,76.7130638 59.4990468,76.4902553 60.0991319,76.4902553 L63.0766213,76.4902553 C63.6991745,76.4902553 63.9210468,76.7130638 63.9210468,77.3351489 L63.9210468,77.3351489 Z M59.6324511,74.2462553 C57.6323234,74.2462553 56.6994298,75.1800851 56.6994298,77.1792766 L56.6994298,83.3125957 C56.6994298,85.3127234 57.6323234,86.245617 59.6324511,86.245617 L63.5433021,86.245617 C65.5429617,86.245617 66.4763234,85.3127234 66.4763234,83.3125957 L66.4763234,77.1792766 C66.4763234,75.1800851 65.5429617,74.2462553 63.5433021,74.2462553 L59.6324511,74.2462553 Z" id="Fill-23" fill="#2F4A73"></path>
                <polygon id="Fill-24" fill="#2F4A73" points="67.6328213 72.8911021 69.6769489 72.8911021 69.6769489 84.0455702 67.6328213 84.0455702 67.6328213 86.2455702 79.8989915 86.2455702 79.8989915 81.712634 77.5211191 81.712634 77.5211191 83.9571021 72.3436298 83.9571021 72.3436298 79.534634 78.1432043 79.534634 78.1432043 77.1352298 72.3436298 77.1352298 72.3436298 72.9795702 77.5211191 72.9795702 77.5211191 75.2240383 79.8989915 75.2240383 79.8989915 70.6911021 67.6328213 70.6911021"></polygon>
                <path d="M92.8538553,77.135417 C92.8538553,75.0683532 91.9209617,74.1354596 89.5430894,74.1354596 C87.3875574,74.1354596 86.5436,74.8904809 85.6322383,75.9572468 L85.6322383,74.2463957 L81.2771745,74.2463957 L81.2771745,76.1795872 L83.0764936,76.1795872 L83.0764936,84.3120979 L81.2771745,84.3120979 L81.2771745,86.2457574 L87.1656851,86.2457574 L87.1656851,84.3120979 L85.6322383,84.3120979 L85.6322383,77.3792894 C86.6770043,76.7572043 87.5204936,76.4239277 89.1433447,76.4239277 C90.0762383,76.4239277 90.2985787,76.6682681 90.2985787,77.3352894 L90.2985787,84.3120979 L88.7431319,84.3120979 L88.7431319,86.2457574 L94.5427064,86.2457574 L94.5427064,84.3120979 L92.8538553,84.3120979 L92.8538553,77.135417 Z" id="Fill-25" fill="#2F4A73"></path>
                <path d="M102.788353,82.6235277 C101.744055,83.2676128 100.89963,83.5788894 99.1663106,83.5788894 C98.1215447,83.5788894 97.8776723,83.335017 97.8776723,82.7344638 L97.8776723,77.290166 C97.8776723,76.6905489 98.1215447,76.4462085 99.1663106,76.4462085 C100.89963,76.4462085 101.744055,76.7799532 102.788353,77.4015702 L102.788353,82.6235277 Z M124.254736,77.1352298 C124.254736,75.068166 123.321374,74.1352723 120.94397,74.1352723 C118.788906,74.1352723 117.944013,74.8902936 117.033119,75.9575277 L117.033119,74.2466766 L112.678055,74.2466766 L112.678055,76.1794 L114.477843,76.1794 L114.477843,84.3119106 L112.92146,84.3119106 L112.678055,84.3119106 L111.165672,84.3119106 L111.165672,74.2466766 L107.054949,74.2466766 L106.766609,74.2466766 L102.788353,74.2466766 L102.788353,75.9795277 C101.854991,74.9127617 101.033034,74.1572723 98.7436298,74.1572723 C96.2552894,74.1572723 95.3223957,75.090634 95.3223957,77.246166 L95.3223957,82.8014 C95.3223957,84.9344638 96.2552894,85.8682936 98.7436298,85.8682936 C101.033034,85.8682936 101.854991,85.1348043 102.788353,84.0455702 L102.788353,86.8896553 C102.788353,87.4897404 102.544013,87.7345489 101.94346,87.7345489 L96.7889064,87.7345489 L96.7889064,89.8011447 L102.41014,89.8011447 C104.410736,89.8011447 105.344098,88.867783 105.344098,86.8676553 L105.344098,76.1794 L106.766609,76.1794 L107.054949,76.1794 L108.610864,76.1794 L108.610864,84.3119106 L106.766609,84.3119106 L106.766609,86.2455702 L112.678055,86.2455702 L112.92146,86.2455702 L118.566098,86.2455702 L118.566098,84.3119106 L117.033119,84.3119106 L117.033119,77.3795702 C118.077417,76.7574851 118.921843,76.4242085 120.544226,76.4242085 C121.477119,76.4242085 121.698991,76.6680809 121.698991,77.3351021 L121.698991,84.3119106 L120.144013,84.3119106 L120.144013,86.2455702 L125.943587,86.2455702 L125.943587,84.3119106 L124.254736,84.3119106 L124.254736,77.1352298 Z" id="Fill-27" fill="#2F4A73"></path>
                <path d="M142.455336,74.2464426 L138.055804,74.2464426 L138.055804,76.179634 L139.90006,76.179634 L139.90006,84.3121447 L138.321209,84.3121447 L138.055804,84.3121447 L136.632826,84.3121447 L136.632826,74.2464426 L132.054953,74.2464426 L132.054953,76.179634 L134.077549,76.179634 L134.077549,83.0459745 C133.032783,83.6900596 132.187889,84.0013362 130.566443,84.0013362 C129.633081,84.0013362 129.41074,83.7565277 129.41074,83.0904426 L129.41074,74.2464426 L125.188613,74.2464426 L125.188613,76.179634 L126.855464,76.179634 L126.855464,83.3572511 C126.855464,85.4233787 127.788826,86.3567404 130.16623,86.3567404 C132.321762,86.3567404 133.165719,85.6012511 134.077549,84.5349532 L134.077549,86.2458043 L138.055804,86.2458043 L138.321209,86.2458043 L144.210655,86.2458043 L144.210655,84.3121447 L142.455336,84.3121447 L142.455336,74.2464426 Z" id="Fill-28" fill="#2F4A73"></path>
                <path d="M158.521983,74.2464426 L158.521983,76.179634 L159.766153,76.179634 L157.322281,83.6455915 L155.055345,76.179634 L156.299983,76.179634 L156.299983,74.2464426 L151.188962,74.2464426 L151.122026,74.2464426 L148.433345,74.2464426 L148.433345,71.3574213 L145.944536,71.3574213 L145.944536,74.2464426 L144.144281,74.2464426 L144.144281,76.1815064 L145.922068,76.1815064 L145.922068,83.3123149 C145.922068,85.3129106 146.85543,86.2458043 148.856026,86.2458043 L151.188962,86.2458043 L151.188962,84.0902723 L149.322238,84.0902723 C148.700153,84.0902723 148.477813,83.8679319 148.477813,83.2458468 L148.477813,76.1815064 L151.188962,76.1815064 L151.188962,76.179634 L152.4336,76.179634 L156.011174,86.2458043 L155.477557,87.8232511 L153.65577,87.8232511 L153.65577,89.8009106 L159.299472,89.8009106 L159.299472,87.8232511 L157.988366,87.8232511 L162.29943,76.179634 L163.610068,76.179634 L163.610068,74.2464426 L158.521983,74.2464426 Z" id="Fill-30" fill="#2F4A73"></path>
                <path d="M73.0985106,106.476677 C73.0985106,107.232166 72.8766383,107.476506 71.8098723,107.476506 C70.0765532,107.476506 69.2316596,107.14323 68.1878298,106.521613 L68.1878298,100.832506 C69.2316596,100.209953 70.0765532,99.8771447 71.8098723,99.8771447 C72.8766383,99.8771447 73.0985106,100.121953 73.0985106,100.876974 L73.0985106,106.476677 Z M72.2540851,97.5886766 C69.965617,97.5886766 69.1207234,98.344166 68.2098298,99.4104638 L68.2098298,93.4554851 L63.854766,93.4554851 L63.854766,95.3886766 L65.6545532,95.3886766 L65.6545532,107.743315 L64.2755745,107.743315 L63.854766,107.743315 L62.5867234,107.743315 L62.5867234,97.6771447 L58.0097872,97.6771447 L58.0097872,99.6103362 L60.0314468,99.6103362 L60.0314468,106.476677 C58.987617,107.120762 58.1427234,107.432038 56.5208085,107.432038 C55.5874468,107.432038 55.3651064,107.188166 55.3651064,106.521613 L55.3651064,97.6771447 L51.1429787,97.6771447 L51.1429787,99.6103362 L52.8098298,99.6103362 L52.8098298,106.787485 C52.8098298,108.854549 53.7431915,109.787443 56.1205957,109.787443 C58.2761277,109.787443 59.1205532,109.031953 60.0314468,107.965655 L60.0314468,109.676506 L63.854766,109.676506 L64.2755745,109.676506 L68.2098298,109.676506 L68.2098298,107.943655 C69.1207234,109.009953 69.965617,109.764974 72.2540851,109.764974 C74.7428936,109.764974 75.6762553,108.832081 75.6762553,106.676549 L75.6762553,100.677102 C75.6762553,98.5220383 74.7428936,97.5886766 72.2540851,97.5886766 L72.2540851,97.5886766 Z" id="Fill-31" fill="#2F4A73"></path>
                <path d="M39.6912298,60.4552979 L39.6912298,57.6112128 L39.6912298,55.9162766 L39.6912298,53.6240638 L39.6912298,52.7403191 L39.6912298,49.6406596 L44.7151872,49.6406596 C45.4720809,49.6406596 45.6944213,49.8634681 45.6944213,51.6435957 C45.6944213,53.4017234 45.4720809,53.6240638 44.7151872,53.6240638 L40.4883787,53.6240638 L40.8431872,55.9162766 L44.8930596,55.9162766 C45.6494851,55.9162766 45.8722936,56.1381489 45.8722936,58.1855532 C45.8722936,60.2329574 45.6494851,60.4552979 44.8930596,60.4552979 L39.6912298,60.4552979 Z M48.5647191,58.4752979 C48.5647191,56.1381489 48.0755702,55.3152553 46.9404638,54.8481064 C47.9416979,54.3140213 48.3868468,53.4681915 48.3868468,51.4207872 C48.3868468,48.2612128 47.3851447,47.2599787 45.2492723,47.2599787 L35.5421234,47.2599787 L35.5421234,49.4627872 L37.0208043,49.4627872 L37.0208043,60.6331702 L35.5421234,60.6331702 L35.5421234,62.8364468 L45.4271447,62.8364468 C47.5634851,62.8364468 48.5647191,61.8347447 48.5647191,58.4752979 L48.5647191,58.4752979 Z" id="Fill-32" fill="#2F4A73"></path>
                <path d="M39.6912298,83.8755617 L39.6912298,81.0314766 L39.6912298,79.3365404 L39.6912298,77.0438596 L39.6912298,76.160583 L39.6912298,73.0609234 L44.7151872,73.0609234 C45.4720809,73.0609234 45.6944213,73.2832638 45.6944213,75.0638596 C45.6944213,76.8219872 45.4720809,77.0438596 44.7151872,77.0438596 L40.4883787,77.0438596 L40.8431872,79.3365404 L44.8930596,79.3365404 C45.6494851,79.3365404 45.8722936,79.5584128 45.8722936,81.605817 C45.8722936,83.6532213 45.6494851,83.8755617 44.8930596,83.8755617 L39.6912298,83.8755617 Z M48.5647191,81.8955617 C48.5647191,79.5584128 48.0755702,78.7355191 46.9404638,78.2679021 C47.9416979,77.7342851 48.3868468,76.8884553 48.3868468,74.8410511 C48.3868468,71.6810085 47.3851447,70.6802426 45.2492723,70.6802426 L35.5421234,70.6802426 L35.5421234,72.8830511 L37.0208043,72.8830511 L37.0208043,84.053434 L35.5421234,84.053434 L35.5421234,86.2567106 L45.4271447,86.2567106 C47.5634851,86.2567106 48.5647191,85.2550085 48.5647191,81.8955617 L48.5647191,81.8955617 Z" id="Fill-33" fill="#2F4A73"></path>
                <polygon id="Fill-34" fill="#2F4A73" points="39.6852851 102.899289 39.6852851 100.476949 39.6852851 96.3217574 41.1405617 96.3217574 41.1405617 94.1217574 35.5417957 94.1217574 35.5417957 96.3217574 37.0190723 96.3217574 37.0190723 107.476226 35.5417957 107.476226 35.5417957 109.676694 41.1405617 109.676694 41.1405617 107.476226 39.6852851 107.476226"></polygon>
                <polygon id="Fill-35" fill="#2F4A73" points="44.8026723 96.3218511 46.2574809 96.3218511 46.2574809 100.477043 40.4869277 100.477043 40.8417362 102.899383 46.2574809 102.899383 46.2574809 107.476319 44.8026723 107.476319 44.8026723 109.676319 50.4009702 109.676319 50.4009702 107.476319 48.9241617 107.476319 48.9241617 96.3218511 50.4009702 96.3218511 50.4009702 94.1218511 44.8026723 94.1218511"></polygon>
            </g>
        </g>
    </g>
</svg>