<?xml version="1.0" encoding="utf-8"?>
<!-- Generator: Adobe Illustrator 25.0.1, SVG Export Plug-In . SVG Version: 6.00 Build 0)  -->
<svg version="1.1" id="Layer_1" xmlns="http://www.w3.org/2000/svg" xmlns:xlink="http://www.w3.org/1999/xlink" x="0px" y="0px"
	 viewBox="0 0 1470.4 257" style="enable-background:new 0 0 1470.4 257;" xml:space="preserve">
<style type="text/css">
	.st0{fill:#FCB515;}
	.st1{fill:#FFFFFF;}
</style>
<g>
	<g>
		<path class="st0" d="M998.1,146.9c0,23.5-15.4,40-51.7,40h-46.7V43.1h44.8c34.5,0,49,15.6,49,37.5c0,14-8.5,27.8-27.6,32.7
			C987,117.4,998.1,130.1,998.1,146.9z M945.2,56.5h-30.8v51.7c0.2,0,28.5,0,28.5,0c21.6,0,35.9-9.4,35.9-26.4
			C978.8,66.4,968,56.5,945.2,56.5z M943.8,121.6h-29.4v52h33.1c25.3,0,35.9-10.3,35.9-26.7C983.4,130.1,969.3,121.6,943.8,121.6z"
			/>
		<path class="st0" d="M1027.8,186.9V43.1h86.9v13.6h-72.2v51.5h60.3v13.3h-60.3v51.7h72.2v13.6H1027.8z"/>
		<path class="st0" d="M1199.7,189.9c-41.6,0-69.5-29-69.5-74.5c0-45.8,29.2-75.2,69.5-75.2c17.7,0,35,5.5,45.5,12l-4.8,13.3
			c-10.8-6.9-26-12-40.9-12c-31.3,0-54.3,22.3-54.3,61.4c0,37.9,21.8,61.6,54.7,61.6c13.6,0,25.3-3.7,34.5-8.7v-39.1h-41.6v-13.3
			h55.9v60.3C1234.7,185,1216.1,189.9,1199.7,189.9z"/>
		<path class="st0" d="M1282.8,186.9V43.1h14.5v143.7H1282.8z"/>
		<path class="st0" d="M1432.9,43.1h14.3v145.1h-15.9L1349,63.8v123h-14.3V43.1h16.6l81.6,123.3V43.1z"/>
	</g>
	<g>
		<path class="st1" d="M458.4,182.8c-8.8,0-17.1-12.7-25.9-23.4c-18.2-21.8-22.8-26.7-22.8-29c0-1.8,16.1-13.2,29.1-25.9
			c8.1-7.8,16.9-18.9,16.9-21.3c0-0.8-1-1-3.1-1c-3.1,0-18.2,0.8-21.5,0.8c-3.1,0-8-0.8-10.6-0.8c-3.4,0-4.7,0.5-4.7,2.6
			c0,2.3,1.3,2.9,5.2,2.9c11.4,0,12.2,0.5,12.2,4.7c0,5.4-2.3,9.8-12.5,19.4c-8.3,7.8-35.3,31.6-41.8,31.6c-0.8,0-1-0.8-1-1.8
			c0-42.3,1.6-71.3,1.6-110.8c0-8.3,0.5-19.2,0.5-22.6c0-1.6-0.5-2.3-1.8-2.3c-2.3,0-17.6,5.7-36.3,5.7c-2.8,0-3.4,1-3.4,3.6
			c0,1.8,1,2.6,11.7,2.6c7,0,9.1,2.3,9.1,20.8c0,54.7-0.8,131.5-0.8,139.1c0,3.9-2.3,3.9-11.2,3.9c-6.2,0-7.5,1.3-7.5,3.4
			c0,2.3,1.6,2.6,7.5,2.6c3.6,0,13.2-0.5,22.1-0.5c8.3,0,20.2,0.5,24.1,0.5c5.7,0,7,0,7-2.6c0-2.1-1-3.4-7-3.4
			c-16.1,0-15.6,0-15.6-12.2v-16.3c0-2.3,3.6-4.2,7.8-6.7c4.4-2.9,8-5.4,9.1-5.4c1.6,0,12.5,16.3,23.3,28.8
			c10.9,12.4,13.2,18.9,17.9,18.9c3.6,0,11.4-0.3,14.5-0.3c2.3,0,5.7,0.3,8.8,0.3c5.7,0,7.5-0.5,7.5-2.3
			C466.7,184.1,464.7,182.8,458.4,182.8 M560.7,181.5c-6.2,0-6.5,1.6-6.5,3.4c0,2.1,0.5,2.6,6.5,2.6c3.6,0,17.4-0.5,26.2-0.5
			c4.7,0,10.4,0.5,14.3,0.5c9.3,0,11.2,0,11.2-2.6c0-2.1,0.5-3.6-12.5-3.6c-4.7,0-6.5-2.9-6.5-24.4c0-7.5,1.3-28,1.3-126.9
			c0-7.8,1.3-17.1,1.3-20.2c0-2.9-1.3-4.1-2.6-4.1c-1.6,0-11.4,4.4-31.6,5.7c-4.4,0.3-6.5,0-6.5,3.1c0,2.9,2.6,3.4,7.3,3.4
			c11.7,0,13.2,0,13.2,16.3v142.9C575.7,181.7,571.3,181.5,560.7,181.5 M653.7,85c11.9,0,27.2,19.2,27.2,25.7c0,1.6-0.3,2.1-3.1,2.6
			c-19.5,3.1-33.5,6.5-47,6.5c-3.1,0-3.1-0.3-3.1-1.6C627.8,114.6,634,85,653.7,85 M661,191.6c21,0,43.1-16.4,43.1-17.6
			c0-0.5-0.8-2.1-2.1-2.1c-1.6,0-10.9,6.2-28,6.2c-19.7,0-47.5-9.6-47.5-45.4c0-6,0.8-7.3,4.9-7.5c29.6-1.8,55.5-7.5,62.3-9.1
			c7-1.6,10.6-2.6,10.6-3.6c0-2.1-4.1-8.3-8.6-13.5c-9.3-10.9-25.9-19.5-39.4-19.5c-23.6,0-48.3,21.8-48.3,58.4
			C608.1,181.2,639.7,191.6,661,191.6 M504.1,85c11.9,0,27.2,19.2,27.2,25.7c0,1.6-0.3,2.1-3.1,2.6c-19.5,3.1-33.5,6.5-47,6.5
			c-3.1,0-3.1-0.3-3.1-1.6C478.1,114.6,484.4,85,504.1,85 M511.4,191.6c21,0,43.1-16.4,43.1-17.6c0-0.5-0.8-2.1-2.1-2.1
			c-1.6,0-10.9,6.2-28,6.2c-19.7,0-47.5-9.6-47.5-45.4c0-6,0.8-7.3,4.9-7.5c29.6-1.8,55.5-7.5,62.3-9.1c7-1.6,10.6-2.6,10.6-3.6
			c0-2.1-4.2-8.3-8.6-13.5c-9.3-10.9-25.9-19.5-39.4-19.5c-23.6,0-48.3,21.8-48.3,58.4C458.4,181.2,490.1,191.6,511.4,191.6
			 M323,184.9c0-2.3-0.3-3.1-7-3.1c-19.2,0-20,0-20-12.7v-53.4c0-10.9,5.7-17.1,20.8-17.1c13,0,16.1,10.6,19.7,10.6
			c1.6,0,5.7-11.4,5.7-14c0-6.7-11.9-12.5-16.6-12.5c-12.2,0-24.4,13.5-28.3,13.5c-1,0-1.3-1.8-1.3-4.1c0-0.8,0.5-6.5,0.5-7.8
			c0-2.1-1-2.9-2.1-2.9c-4.2,0-9.1,1.3-13.2,1.3c-5.2,0-10.1-0.5-18.9-0.5c-4.4,0-4.2,0.8-4.2,3.9c0,2.9,0,2.6,4.7,2.6
			c14.5,0,14,0.5,14,18.1v71.1c0,3.6-0.8,3.9-11.4,3.9c-6.2,0-6.5,0.5-6.5,3.1c0,2.6,0.5,2.6,6.5,2.6c3.6,0,12.5-1.3,21.3-1.3
			c8.3,0,25.7,1.3,29.3,1.3C322.7,187.5,323,187.7,323,184.9 M201.6,85c11.9,0,27.2,19.2,27.2,25.7c0,1.6-0.3,2.1-3.1,2.6
			c-19.5,3.1-33.5,6.5-47,6.5c-3.1,0-3.1-0.3-3.1-1.6C175.6,114.6,181.9,85,201.6,85 M208.8,191.6c21,0,43.1-16.4,43.1-17.6
			c0-0.5-0.8-2.1-2.1-2.1c-1.6,0-10.9,6.2-28,6.2c-19.7,0-47.5-9.6-47.5-45.4c0-6,0.8-7.3,4.9-7.5c29.6-1.8,55.5-7.5,62.3-9.1
			c7-1.6,10.6-2.6,10.6-3.6c0-2.1-4.1-8.3-8.6-13.5c-9.3-10.9-25.9-19.5-39.4-19.5c-23.6,0-48.3,21.8-48.3,58.4
			C155.9,181.2,187.6,191.6,208.8,191.6 M78.7,184.8c-9.5,0-19.1-2.1-22.4-5.7c-2.7-3-3.6-19.7-3.6-22.4v-53.4
			c0-6.6,2.4-7.8,10.7-7.8c32.5,0,54.6,20.9,54.6,47.7C118.1,169.3,101.4,184.8,78.7,184.8 M52.8,21.1c0-6,0.9-8.7,20.6-8.7
			C100.5,12.4,113,41,113,56c0,23.6-9.8,29.2-18.5,35.8c0,0-12.5-1.8-30.7-1.8c-7.2,0-11,0.6-11-4.2V21.1z M114.8,97.7
			c-6-3-11.6-4.5-11.6-5.1c0-0.9,6.6-4.2,12.2-8.1c9.5-6.6,22.4-17,22.4-38.2c0-21.2-16.7-41.2-55.5-41.2C55.5,5.2,41.2,7,34.9,7
			C24.5,7,15.2,6.7,6,6.7C0.9,6.7,0,7,0,9.1C0,12.7,1.2,13,14.6,13c8.3,0,13.1,2.7,13.1,26.2v137.2c0,4.5-0.6,5.1-14,5.1
			c-6.6,0-8.4,0.6-8.4,3.6c0,3,2.1,3.3,5.1,3.3c9.5,0,16.1-1.2,28.6-1.2c13.1,0,25.7,3,38.2,3c41.5,0,69.2-15.8,69.2-49.2
			C146.4,115,128.8,104.9,114.8,97.7 M812.5,81.6c-3.6,0-10.6,1-14.5,1c-7,0-11.7-0.5-18.7-0.5c-4.7,0-5.4,0-5.4,3.4
			c0,2.6,1,2.6,9.1,2.6c8.8,0,8.8,1.6,8.8,9.3c0,3.6-9.3,30.6-15.6,49.3c-4.2,12.2-5.7,15.8-7.5,15.8c-1,0-4.2-4.4-6.2-9.9
			c-15.6-40-22.3-49-22.3-56.6c0-6,1.5-7.5,7.8-7.5c5.4,0,6.5-0.3,6.5-2.6c0-2.9-1-3.9-6.5-3.9c-8.3,0-17.4,0.8-24.6,0.8
			c-6.2,0-8.1-0.5-15.3-0.5c-4.7,0-5.5,1.3-5.5,3.6s0.3,2.6,5.5,2.6c4.7,0,6.5,1.3,13,16.9c14.3,33.7,35,81.7,35,84.6
			c0,7.8-22.3,38.4-31.7,50.1c-8.8,11.2-21,12.7-21,14.3c0,1.3,2.6,2.6,7,2.6c5.7,0,7.5-2.1,15.3-3.1c5.7-0.8,8.8-1,11.7-6.8
			c8.3-17.1,20-38.1,36.3-77.8c20.5-49.8,31.9-80.9,37.6-80.9c3.1,0,6.7-1.3,6.7-3.6C818,81.9,816.6,81.6,812.5,81.6"/>
	</g>
</g>
</svg>
