<?xml version="1.0" encoding="utf-8"?>
<!-- Generator: Adobe Illustrator 25.0.1, SVG Export Plug-In . SVG Version: 6.00 Build 0)  -->
<svg version="1.1" id="Layer_1" xmlns="http://www.w3.org/2000/svg" xmlns:xlink="http://www.w3.org/1999/xlink" x="0px" y="0px"
	 viewBox="0 0 1409.4 269.3" style="enable-background:new 0 0 1409.4 269.3;" xml:space="preserve">
<style type="text/css">
	.st0{fill:#C3832B;}
	.st1{fill:#003262;}
</style>
<g>
	<g>
		<path class="st0" d="M930.4,94.9c-20.8,0-34.7-14.5-34.7-37.3c0-22.9,14.6-37.6,34.7-37.6c8.9,0,17.5,2.8,22.8,6l-2.4,6.7
			c-5.4-3.5-13-6-20.5-6c-15.6,0-27.1,11.2-27.1,30.7c0,19,10.9,30.8,27.4,30.8c6.8,0,12.7-1.8,17.3-4.4V64.3H927v-6.7h27.9v30.1
			C947.9,92.5,938.6,94.9,930.4,94.9z"/>
		<path class="st0" d="M998.6,87.1c-3.6,4.4-9.2,7.8-15.4,7.8c-9.7,0-16.7-6.2-16.7-14.6c0-9.5,7.5-17.4,32-18.7c0,0,0-2.8,0-3.1
			c0-8.3-3.7-12.5-12.4-12.5c-5.8,0-12.8,3-17.3,6.3l-1.6-6.7c4.7-3.3,12.7-6.3,19.6-6.3c12.2,0,19,5.5,18.9,18.9
			c0,0.3,0,25.3,0,25.3c0,3.8,0.7,5.4,5.3,5.3l-0.5,5.9c-6.9,0.5-10.7-2.3-11.5-7.5H998.6z M998.5,66.4
			c-18.1,2.1-24.5,6.1-24.5,13.1c0,5.6,4.6,9.2,10.8,9.2c5.6,0,10.5-3.2,13.7-6.9V66.4z"/>
		<path class="st0" d="M1035.9,95.2c-10,0-14.5-5.5-14.1-16.6l0.8-31.2l-8.1-0.5l0.3-4.5l7.9-1.8l0.3-12h6.8l-0.3,12.3h17.6
			l-0.3,6.3h-17.5l-0.8,31.5c-0.2,6.7,2.2,9.9,7.7,9.9c3.5,0,6.9-1.1,10.1-2.5l1.3,6.2C1044,94.1,1039.7,95.2,1035.9,95.2z"/>
		<path class="st0" d="M1060.9,67.9c0.2,11.8,7.4,20.4,18.4,20.4c5.8,0,11.3-1.7,15.3-4.4l1.4,6.6c-4.5,2.8-10.4,4.5-16.9,4.5
			c-15.2,0-25.4-11.4-25.4-27.4c0-16.6,10.6-28.3,24.8-28.3c11.6,0,19.2,7.6,19.2,19.4c0,2.8-0.5,6.1-1.2,8.4l-35.7,0.2V67.9z
			 M1090.6,61.6c0.1-0.6,0.1-1.7,0.1-2.3c0-8.1-4.4-13.6-12.7-13.6c-9.4,0-15.5,7.2-16.7,16L1090.6,61.6z"/>
		<path class="st0" d="M1120.6,93.7l-16.1-52.9h7.6l12.2,42l13.7-41.9h6.4l14.4,42.1l10.9-42.2h7.8l-15.6,52.9h-6.3l-14.4-42.6
			l-14.4,42.6H1120.6z"/>
		<path class="st0" d="M1216.9,87.1c-3.6,4.4-9.2,7.8-15.4,7.8c-9.7,0-16.7-6.2-16.7-14.6c0-9.5,7.5-17.4,32-18.7c0,0,0-2.8,0-3.1
			c0-8.3-3.7-12.5-12.4-12.5c-5.8,0-12.8,3-17.2,6.3l-1.6-6.7c4.7-3.3,12.7-6.3,19.6-6.3c12.2,0,19,5.5,18.9,18.9
			c0,0.3,0,25.3,0,25.3c0,3.8,0.7,5.4,5.3,5.3l-0.5,5.9c-6.9,0.5-10.7-2.3-11.5-7.5H1216.9z M1216.8,66.4
			c-18.1,2.1-24.5,6.1-24.5,13.1c0,5.6,4.6,9.2,10.8,9.2c5.6,0,10.5-3.2,13.7-6.9V66.4z"/>
		<path class="st0" d="M1258.6,92.9l-4.3,11.4c-4.8,12.9-9.9,16.6-17,16.6c-4,0-7-1-10.2-2.4l2.2-6.6c2.5,1.4,5.2,2.3,8.1,2.3
			c4,0,7-2.2,10.8-12.2l3.6-9.3l-20.6-51.9h7.7l16.6,43.5l16.2-43.5h7.5L1258.6,92.9z"/>
		<path class="st0" d="M1333.1,95.2c-10,0-14.5-5.5-14.1-16.6l0.8-31.2l-8.1-0.5l0.3-4.5l7.9-1.8l0.3-12h6.8l-0.3,12.3h17.6
			l-0.3,6.3h-17.5l-0.8,31.5c-0.2,6.7,2.2,9.9,7.7,9.9c3.5,0,6.9-1.1,10.1-2.5l1.3,6.2C1341.2,94.1,1336.9,95.2,1333.1,95.2z"/>
		<path class="st0" d="M1376.3,94.9c-14.6,0-25.4-10.8-25.4-27.7c0-16.8,11.3-27.9,26-27.9s25.3,10.8,25.3,27.7
			C1402.2,83.8,1390.9,94.9,1376.3,94.9z M1376.5,45.7c-11.2,0-18.5,8.9-18.5,21.3c0,12.9,7.5,21.5,18.6,21.5
			c11.2,0,18.5-8.9,18.5-21.3C1395.2,54.3,1387.7,45.7,1376.5,45.7z"/>
	</g>
	<g>
		<path class="st0" d="M899.7,199.1v-71.9h7.2v71.9H899.7z"/>
		<path class="st0" d="M959,199.1v-34c0-9.2-3.7-13.3-11.6-13.3c-5.8,0-11.6,3.1-16,7.5v39.9h-7.1v-52.7l7.1-1.5v8.6
			c5.5-5.5,12.4-8.6,17.9-8.6c10.6,0,16.8,6.6,16.8,18.1v36.1H959z"/>
		<path class="st0" d="M1016.6,199.1v-34c0-9.2-3.7-13.3-11.6-13.3c-5.8,0-11.6,3.1-16,7.5v39.9h-7.1v-52.7l7.1-1.5v8.6
			c5.5-5.5,12.4-8.6,17.9-8.6c10.6,0,16.8,6.6,16.8,18.1v36.1H1016.6z"/>
		<path class="st0" d="M1061.8,200.6c-14.6,0-25.4-10.8-25.4-27.7c0-16.8,11.3-27.9,26-27.9s25.3,10.8,25.3,27.7
			C1087.7,189.4,1076.4,200.6,1061.8,200.6z M1062,151.3c-11.2,0-18.5,8.9-18.5,21.3c0,12.9,7.5,21.5,18.6,21.5s18.5-8.9,18.5-21.3
			C1080.7,160,1073.2,151.3,1062,151.3z"/>
		<path class="st0" d="M1119.3,199.2h-6.4l-20.8-52.8h7.7l16.7,43.5l16.1-43.5h7.5L1119.3,199.2z"/>
		<path class="st0" d="M1178.7,192.7c-3.6,4.4-9.2,7.8-15.4,7.8c-9.7,0-16.7-6.2-16.7-14.6c0-9.5,7.5-17.4,32-18.7c0,0,0-2.8,0-3.1
			c0-8.3-3.7-12.5-12.4-12.5c-5.8,0-12.8,3-17.3,6.3l-1.6-6.7c4.7-3.3,12.7-6.3,19.6-6.3c12.2,0,19,5.5,18.9,18.9
			c0,0.3,0,25.3,0,25.3c0,3.8,0.7,5.4,5.3,5.3l-0.5,5.9c-6.9,0.5-10.7-2.3-11.5-7.5H1178.7z M1178.6,172
			c-18.1,2.1-24.5,6.1-24.5,13.1c0,5.6,4.6,9.2,10.8,9.2c5.6,0,10.5-3.2,13.7-6.9V172z"/>
		<path class="st0" d="M1216,200.8c-10,0-14.5-5.5-14.1-16.6l0.8-31.2l-8.1-0.5l0.3-4.5l7.9-1.8l0.3-12h6.8l-0.3,12.3h17.6l-0.3,6.3
			h-17.5l-0.8,31.5c-0.2,6.7,2.2,9.9,7.7,9.9c3.5,0,6.9-1.1,10.1-2.5l1.3,6.2C1224.1,199.8,1219.8,200.8,1216,200.8z"/>
		<path class="st0" d="M1242.2,134.3c-3.2,0-4.8-2.5-4.8-5.3c0-2.6,1.6-5.1,4.8-5.1c3.2,0,4.8,2.4,4.8,5.1
			C1247.1,131.8,1245.5,134.3,1242.2,134.3z M1238.7,199.1v-52.7l7.1-1.5v54.2H1238.7z"/>
		<path class="st0" d="M1283.8,200.6c-14.6,0-25.4-10.8-25.4-27.7c0-16.8,11.3-27.9,26-27.9s25.3,10.8,25.3,27.7
			C1309.6,189.4,1298.4,200.6,1283.8,200.6z M1284,151.3c-11.2,0-18.5,8.9-18.5,21.3c0,12.9,7.5,21.5,18.6,21.5
			c11.2,0,18.5-8.9,18.5-21.3C1302.6,160,1295.1,151.3,1284,151.3z"/>
		<path class="st0" d="M1357.4,199.1v-34c0-9.2-3.7-13.3-11.6-13.3c-5.8,0-11.6,3.1-16,7.5v39.9h-7.1v-52.7l7.1-1.5v8.6
			c5.5-5.5,12.4-8.6,17.9-8.6c10.6,0,16.8,6.6,16.8,18.1v36.1H1357.4z"/>
	</g>
	<g>
		<path class="st1" d="M458.4,195.1c-8.8,0-17.1-12.7-25.9-23.4c-18.2-21.8-22.8-26.7-22.8-29c0-1.8,16.1-13.2,29.1-25.9
			c8.1-7.8,16.9-18.9,16.9-21.3c0-0.8-1-1-3.1-1c-3.1,0-18.2,0.8-21.5,0.8c-3.1,0-8-0.8-10.6-0.8c-3.4,0-4.7,0.5-4.7,2.6
			c0,2.3,1.3,2.9,5.2,2.9c11.4,0,12.2,0.5,12.2,4.7c0,5.4-2.3,9.8-12.5,19.4c-8.3,7.8-35.3,31.6-41.8,31.6c-0.8,0-1-0.8-1-1.8
			c0-42.3,1.6-71.3,1.6-110.8c0-8.3,0.5-19.2,0.5-22.6c0-1.6-0.5-2.3-1.8-2.3c-2.3,0-17.6,5.7-36.3,5.7c-2.8,0-3.4,1-3.4,3.6
			c0,1.8,1,2.6,11.7,2.6c7,0,9.1,2.3,9.1,20.8c0,54.7-0.8,131.5-0.8,139.1c0,3.9-2.3,3.9-11.2,3.9c-6.2,0-7.5,1.3-7.5,3.4
			c0,2.3,1.6,2.6,7.5,2.6c3.6,0,13.2-0.5,22.1-0.5c8.3,0,20.2,0.5,24.1,0.5c5.7,0,7,0,7-2.6c0-2.1-1-3.4-7-3.4
			c-16.1,0-15.6,0-15.6-12.2v-16.3c0-2.3,3.6-4.2,7.8-6.7c4.4-2.9,8-5.4,9.1-5.4c1.6,0,12.5,16.3,23.3,28.8
			c10.9,12.4,13.2,18.9,17.9,18.9c3.6,0,11.4-0.3,14.5-0.3c2.3,0,5.7,0.3,8.8,0.3c5.7,0,7.5-0.5,7.5-2.3
			C466.7,196.4,464.7,195.1,458.4,195.1 M560.7,193.7c-6.2,0-6.5,1.6-6.5,3.4c0,2.1,0.5,2.6,6.5,2.6c3.6,0,17.4-0.5,26.2-0.5
			c4.7,0,10.4,0.5,14.3,0.5c9.3,0,11.2,0,11.2-2.6c0-2.1,0.5-3.6-12.5-3.6c-4.7,0-6.5-2.9-6.5-24.4c0-7.5,1.3-28,1.3-126.9
			c0-7.8,1.3-17.1,1.3-20.2c0-2.9-1.3-4.1-2.6-4.1c-1.6,0-11.4,4.4-31.6,5.7c-4.4,0.3-6.5,0-6.5,3.1c0,2.9,2.6,3.4,7.3,3.4
			c11.7,0,13.2,0,13.2,16.3v142.9C575.7,194,571.3,193.7,560.7,193.7 M653.7,97.2c11.9,0,27.2,19.2,27.2,25.7c0,1.6-0.3,2.1-3.1,2.6
			c-19.5,3.1-33.5,6.5-47,6.5c-3.1,0-3.1-0.3-3.1-1.6C627.8,126.8,634,97.2,653.7,97.2 M661,203.9c21,0,43.1-16.4,43.1-17.6
			c0-0.5-0.8-2.1-2.1-2.1c-1.6,0-10.9,6.2-28,6.2c-19.7,0-47.5-9.6-47.5-45.4c0-6,0.8-7.3,4.9-7.5c29.6-1.8,55.5-7.5,62.3-9.1
			c7-1.6,10.6-2.6,10.6-3.6c0-2.1-4.1-8.3-8.6-13.5c-9.3-10.9-25.9-19.5-39.4-19.5c-23.6,0-48.3,21.8-48.3,58.4
			C608.1,193.5,639.7,203.9,661,203.9 M504.1,97.2c11.9,0,27.2,19.2,27.2,25.7c0,1.6-0.3,2.1-3.1,2.6c-19.5,3.1-33.5,6.5-47,6.5
			c-3.1,0-3.1-0.3-3.1-1.6C478.1,126.8,484.4,97.2,504.1,97.2 M511.4,203.9c21,0,43.1-16.4,43.1-17.6c0-0.5-0.8-2.1-2.1-2.1
			c-1.6,0-10.9,6.2-28,6.2c-19.7,0-47.5-9.6-47.5-45.4c0-6,0.8-7.3,4.9-7.5c29.6-1.8,55.5-7.5,62.3-9.1c7-1.6,10.6-2.6,10.6-3.6
			c0-2.1-4.2-8.3-8.6-13.5c-9.3-10.9-25.9-19.5-39.4-19.5c-23.6,0-48.3,21.8-48.3,58.4C458.4,193.5,490.1,203.9,511.4,203.9
			 M323,197.1c0-2.3-0.3-3.1-7-3.1c-19.2,0-20,0-20-12.7v-53.4c0-10.9,5.7-17.1,20.8-17.1c13,0,16.1,10.6,19.7,10.6
			c1.6,0,5.7-11.4,5.7-14c0-6.7-11.9-12.5-16.6-12.5c-12.2,0-24.4,13.5-28.3,13.5c-1,0-1.3-1.8-1.3-4.1c0-0.8,0.5-6.5,0.5-7.8
			c0-2.1-1-2.9-2.1-2.9c-4.2,0-9.1,1.3-13.2,1.3c-5.2,0-10.1-0.5-18.9-0.5c-4.4,0-4.2,0.8-4.2,3.9c0,2.9,0,2.6,4.7,2.6
			c14.5,0,14,0.5,14,18.1v71.1c0,3.6-0.8,3.9-11.4,3.9c-6.2,0-6.5,0.5-6.5,3.1c0,2.6,0.5,2.6,6.5,2.6c3.6,0,12.5-1.3,21.3-1.3
			c8.3,0,25.7,1.3,29.3,1.3C322.7,199.7,323,200,323,197.1 M201.6,97.2c11.9,0,27.2,19.2,27.2,25.7c0,1.6-0.3,2.1-3.1,2.6
			c-19.5,3.1-33.5,6.5-47,6.5c-3.1,0-3.1-0.3-3.1-1.6C175.6,126.8,181.9,97.2,201.6,97.2 M208.8,203.9c21,0,43.1-16.4,43.1-17.6
			c0-0.5-0.8-2.1-2.1-2.1c-1.6,0-10.9,6.2-28,6.2c-19.7,0-47.5-9.6-47.5-45.4c0-6,0.8-7.3,4.9-7.5c29.6-1.8,55.5-7.5,62.3-9.1
			c7-1.6,10.6-2.6,10.6-3.6c0-2.1-4.1-8.3-8.6-13.5c-9.3-10.9-25.9-19.5-39.4-19.5c-23.6,0-48.3,21.8-48.3,58.4
			C155.9,193.5,187.6,203.9,208.8,203.9 M78.7,197.1c-9.5,0-19.1-2.1-22.4-5.7c-2.7-3-3.6-19.7-3.6-22.4v-53.4
			c0-6.6,2.4-7.8,10.7-7.8c32.5,0,54.6,20.9,54.6,47.7C118.1,181.6,101.4,197.1,78.7,197.1 M52.8,33.3c0-6,0.9-8.7,20.6-8.7
			c27.2,0,39.7,28.6,39.7,43.6c0,23.6-9.8,29.2-18.5,35.8c0,0-12.5-1.8-30.7-1.8c-7.2,0-11,0.6-11-4.2V33.3z M114.8,110
			c-6-3-11.6-4.5-11.6-5.1c0-0.9,6.6-4.2,12.2-8.1c9.5-6.6,22.4-17,22.4-38.2c0-21.2-16.7-41.2-55.5-41.2c-26.8,0-41.2,1.8-47.4,1.8
			C24.5,19.3,15.2,19,6,19c-5.1,0-6,0.3-6,2.4c0,3.6,1.2,3.9,14.6,3.9c8.3,0,13.1,2.7,13.1,26.2v137.2c0,4.5-0.6,5.1-14,5.1
			c-6.6,0-8.4,0.6-8.4,3.6c0,3,2.1,3.3,5.1,3.3c9.5,0,16.1-1.2,28.6-1.2c13.1,0,25.7,3,38.2,3c41.5,0,69.2-15.8,69.2-49.2
			C146.4,127.3,128.8,117.1,114.8,110 M812.5,93.9c-3.6,0-10.6,1-14.5,1c-7,0-11.7-0.5-18.7-0.5c-4.7,0-5.4,0-5.4,3.4
			c0,2.6,1,2.6,9.1,2.6c8.8,0,8.8,1.6,8.8,9.3c0,3.6-9.3,30.6-15.6,49.3c-4.2,12.2-5.7,15.8-7.5,15.8c-1,0-4.2-4.4-6.2-9.9
			c-15.6-40-22.3-49-22.3-56.6c0-6,1.5-7.5,7.8-7.5c5.4,0,6.5-0.3,6.5-2.6c0-2.9-1-3.9-6.5-3.9c-8.3,0-17.4,0.8-24.6,0.8
			c-6.2,0-8.1-0.5-15.3-0.5c-4.7,0-5.5,1.3-5.5,3.6s0.3,2.6,5.5,2.6c4.7,0,6.5,1.3,13,16.9c14.3,33.7,35,81.7,35,84.6
			c0,7.8-22.3,38.4-31.7,50.1c-8.8,11.2-21,12.7-21,14.3c0,1.3,2.6,2.6,7,2.6c5.7,0,7.5-2.1,15.3-3.1c5.7-0.8,8.8-1,11.7-6.8
			c8.3-17.1,20-38.1,36.3-77.8c20.5-49.8,31.9-80.9,37.6-80.9c3.1,0,6.7-1.3,6.7-3.6C818,94.1,816.6,93.9,812.5,93.9"/>
	</g>
</g>
</svg>
